<svg xmlns="http://www.w3.org/2000/svg" width="800" height="400" viewBox="0 0 800 400"><defs><radialGradient id="g1" cx="30%" cy="40%" r="65%"><stop offset="0%" stop-color="#1a1028" stop-opacity=".9"/><stop offset="100%" stop-color="#06040c"/></radialGradient><radialGradient id="g2" cx="75%" cy="65%" r="50%"><stop offset="0%" stop-color="#E0887A" stop-opacity=".15"/><stop offset="100%" stop-color="#06040c" stop-opacity="0"/></radialGradient><radialGradient id="g3" cx="50%" cy="20%" r="45%"><stop offset="0%" stop-color="#7DD3FC" stop-opacity=".08"/><stop offset="100%" stop-color="transparent"/></radialGradient><filter id="noise"><feTurbulence type="fractalNoise" baseFrequency=".65" numOctaves="4" stitchTiles="stitch"/><feColorMatrix type="saturate" values="0"/><feComponentTransfer><feFuncA type="linear" slope=".08"/></feComponentTransfer></filter><filter id="blur"><feGaussianBlur stdDeviation="30"/></filter></defs><rect fill="#06040c" width="800" height="400"/><rect fill="url(#g1)" width="800" height="400"/><rect fill="url(#g2)" width="800" height="400"/><rect fill="url(#g3)" width="800" height="400"/><rect filter="url(#noise)" width="800" height="400" opacity=".4"/><g filter="url(#blur)"><circle cx="240" cy="160" r="20" fill="#E0887A" opacity="0.08"/><circle cx="430" cy="270" r="30" fill="#7DD3FC" opacity="0.06"/><circle cx="620" cy="80" r="40" fill="#1a1028" opacity="0.04"/><circle cx="110" cy="190" r="10" fill="#E0887A" opacity="0.02"/><circle cx="300" cy="300" r="20" fill="#7DD3FC" opacity="0.08"/><circle cx="490" cy="110" r="30" fill="#1a1028" opacity="0.06"/><circle cx="680" cy="220" r="40" fill="#E0887A" opacity="0.04"/><circle cx="170" cy="330" r="10" fill="#7DD3FC" opacity="0.02"/><circle cx="360" cy="140" r="20" fill="#1a1028" opacity="0.08"/><circle cx="550" cy="250" r="30" fill="#E0887A" opacity="0.06"/><circle cx="740" cy="60" r="40" fill="#7DD3FC" opacity="0.04"/><circle cx="230" cy="170" r="10" fill="#1a1028" opacity="0.02"/></g><ellipse cx="400" cy="380" rx="350" ry="60" fill="#E0887A" opacity=".03"/></svg>