<svg xmlns="http://www.w3.org/2000/svg" width="800" height="400" viewBox="0 0 800 400"><defs><radialGradient id="g1" cx="30%" cy="40%" r="65%"><stop offset="0%" stop-color="#14101e" stop-opacity=".9"/><stop offset="100%" stop-color="#08060a"/></radialGradient><radialGradient id="g2" cx="75%" cy="65%" r="50%"><stop offset="0%" stop-color="#8B7AB8" stop-opacity=".15"/><stop offset="100%" stop-color="#08060a" stop-opacity="0"/></radialGradient><radialGradient id="g3" cx="50%" cy="20%" r="45%"><stop offset="0%" stop-color="#E0887A" stop-opacity=".08"/><stop offset="100%" stop-color="transparent"/></radialGradient><filter id="noise"><feTurbulence type="fractalNoise" baseFrequency=".65" numOctaves="4" stitchTiles="stitch"/><feColorMatrix type="saturate" values="0"/><feComponentTransfer><feFuncA type="linear" slope=".08"/></feComponentTransfer></filter><filter id="blur"><feGaussianBlur stdDeviation="30"/></filter></defs><rect fill="#08060a" width="800" height="400"/><rect fill="url(#g1)" width="800" height="400"/><rect fill="url(#g2)" width="800" height="400"/><rect fill="url(#g3)" width="800" height="400"/><rect filter="url(#noise)" width="800" height="400" opacity=".4"/><g filter="url(#blur)"><circle cx="281" cy="189" r="21" fill="#8B7AB8" opacity="0.03"/><circle cx="512" cy="328" r="32" fill="#E0887A" opacity="0.04"/><circle cx="743" cy="167" r="43" fill="#14101e" opacity="0.05"/><circle cx="274" cy="306" r="14" fill="#8B7AB8" opacity="0.06"/><circle cx="505" cy="145" r="25" fill="#E0887A" opacity="0.07"/><circle cx="736" cy="284" r="36" fill="#14101e" opacity="0.08"/><circle cx="267" cy="123" r="47" fill="#8B7AB8" opacity="0.09"/><circle cx="498" cy="262" r="18" fill="#E0887A" opacity="0.02"/><circle cx="729" cy="101" r="29" fill="#14101e" opacity="0.03"/><circle cx="260" cy="240" r="40" fill="#8B7AB8" opacity="0.04"/><circle cx="491" cy="79" r="11" fill="#E0887A" opacity="0.05"/><circle cx="722" cy="218" r="22" fill="#14101e" opacity="0.06"/></g><ellipse cx="400" cy="380" rx="350" ry="60" fill="#8B7AB8" opacity=".03"/></svg>