<svg xmlns="http://www.w3.org/2000/svg" width="800" height="400" viewBox="0 0 800 400"><defs><radialGradient id="g1" cx="30%" cy="40%" r="65%"><stop offset="0%" stop-color="#28200f" stop-opacity=".9"/><stop offset="100%" stop-color="#0a0805"/></radialGradient><radialGradient id="g2" cx="75%" cy="65%" r="50%"><stop offset="0%" stop-color="#C8A064" stop-opacity=".15"/><stop offset="100%" stop-color="#0a0805" stop-opacity="0"/></radialGradient><radialGradient id="g3" cx="50%" cy="20%" r="45%"><stop offset="0%" stop-color="#FBBF24" stop-opacity=".08"/><stop offset="100%" stop-color="transparent"/></radialGradient><filter id="noise"><feTurbulence type="fractalNoise" baseFrequency=".65" numOctaves="4" stitchTiles="stitch"/><feColorMatrix type="saturate" values="0"/><feComponentTransfer><feFuncA type="linear" slope=".08"/></feComponentTransfer></filter><filter id="blur"><feGaussianBlur stdDeviation="30"/></filter></defs><rect fill="#0a0805" width="800" height="400"/><rect fill="url(#g1)" width="800" height="400"/><rect fill="url(#g2)" width="800" height="400"/><rect fill="url(#g3)" width="800" height="400"/><rect filter="url(#noise)" width="800" height="400" opacity=".4"/><g filter="url(#blur)"><circle cx="575" cy="275" r="35" fill="#C8A064" opacity="0.05"/><circle cx="400" cy="200" r="20" fill="#FBBF24" opacity="0.08"/><circle cx="225" cy="125" r="45" fill="#28200f" opacity="0.03"/><circle cx="50" cy="50" r="30" fill="#C8A064" opacity="0.06"/><circle cx="575" cy="275" r="15" fill="#FBBF24" opacity="0.09"/><circle cx="400" cy="200" r="40" fill="#28200f" opacity="0.04"/><circle cx="225" cy="125" r="25" fill="#C8A064" opacity="0.07"/><circle cx="50" cy="50" r="10" fill="#FBBF24" opacity="0.02"/><circle cx="575" cy="275" r="35" fill="#28200f" opacity="0.05"/><circle cx="400" cy="200" r="20" fill="#C8A064" opacity="0.08"/><circle cx="225" cy="125" r="45" fill="#FBBF24" opacity="0.03"/><circle cx="50" cy="50" r="30" fill="#28200f" opacity="0.06"/></g><ellipse cx="400" cy="380" rx="350" ry="60" fill="#C8A064" opacity=".03"/></svg>