<svg xmlns="http://www.w3.org/2000/svg" width="800" height="400" viewBox="0 0 800 400"><defs><radialGradient id="g1" cx="30%" cy="40%" r="65%"><stop offset="0%" stop-color="#201810" stop-opacity=".9"/><stop offset="100%" stop-color="#0a0806"/></radialGradient><radialGradient id="g2" cx="75%" cy="65%" r="50%"><stop offset="0%" stop-color="#FBBF24" stop-opacity=".15"/><stop offset="100%" stop-color="#0a0806" stop-opacity="0"/></radialGradient><radialGradient id="g3" cx="50%" cy="20%" r="45%"><stop offset="0%" stop-color="#F9A8A8" stop-opacity=".08"/><stop offset="100%" stop-color="transparent"/></radialGradient><filter id="noise"><feTurbulence type="fractalNoise" baseFrequency=".65" numOctaves="4" stitchTiles="stitch"/><feColorMatrix type="saturate" values="0"/><feComponentTransfer><feFuncA type="linear" slope=".08"/></feComponentTransfer></filter><filter id="blur"><feGaussianBlur stdDeviation="30"/></filter></defs><rect fill="#0a0806" width="800" height="400"/><rect fill="url(#g1)" width="800" height="400"/><rect fill="url(#g2)" width="800" height="400"/><rect fill="url(#g3)" width="800" height="400"/><rect filter="url(#noise)" width="800" height="400" opacity=".4"/><g filter="url(#blur)"><circle cx="316" cy="304" r="36" fill="#FBBF24" opacity="0.08"/><circle cx="582" cy="258" r="22" fill="#F9A8A8" opacity="0.06"/><circle cx="148" cy="212" r="48" fill="#201810" opacity="0.04"/><circle cx="414" cy="166" r="34" fill="#FBBF24" opacity="0.02"/><circle cx="680" cy="120" r="20" fill="#F9A8A8" opacity="0.08"/><circle cx="246" cy="74" r="46" fill="#201810" opacity="0.06"/><circle cx="512" cy="328" r="32" fill="#FBBF24" opacity="0.04"/><circle cx="78" cy="282" r="18" fill="#F9A8A8" opacity="0.02"/><circle cx="344" cy="236" r="44" fill="#201810" opacity="0.08"/><circle cx="610" cy="190" r="30" fill="#FBBF24" opacity="0.06"/><circle cx="176" cy="144" r="16" fill="#F9A8A8" opacity="0.04"/><circle cx="442" cy="98" r="42" fill="#201810" opacity="0.02"/></g><ellipse cx="400" cy="380" rx="350" ry="60" fill="#FBBF24" opacity=".03"/></svg>