<svg xmlns="http://www.w3.org/2000/svg" width="800" height="400" viewBox="0 0 800 400"><defs><radialGradient id="g1" cx="30%" cy="40%" r="65%"><stop offset="0%" stop-color="#3d1525" stop-opacity=".9"/><stop offset="100%" stop-color="#0a0508"/></radialGradient><radialGradient id="g2" cx="75%" cy="65%" r="50%"><stop offset="0%" stop-color="#E0887A" stop-opacity=".15"/><stop offset="100%" stop-color="#0a0508" stop-opacity="0"/></radialGradient><radialGradient id="g3" cx="50%" cy="20%" r="45%"><stop offset="0%" stop-color="#9080BA" stop-opacity=".08"/><stop offset="100%" stop-color="transparent"/></radialGradient><filter id="noise"><feTurbulence type="fractalNoise" baseFrequency=".65" numOctaves="4" stitchTiles="stitch"/><feColorMatrix type="saturate" values="0"/><feComponentTransfer><feFuncA type="linear" slope=".08"/></feComponentTransfer></filter><filter id="blur"><feGaussianBlur stdDeviation="30"/></filter></defs><rect fill="#0a0508" width="800" height="400"/><rect fill="url(#g1)" width="800" height="400"/><rect fill="url(#g2)" width="800" height="400"/><rect fill="url(#g3)" width="800" height="400"/><rect filter="url(#noise)" width="800" height="400" opacity=".4"/><g filter="url(#blur)"><circle cx="684" cy="96" r="24" fill="#E0887A" opacity="0.04"/><circle cx="618" cy="142" r="38" fill="#9080BA" opacity="0.06"/><circle cx="552" cy="188" r="12" fill="#3d1525" opacity="0.08"/><circle cx="486" cy="234" r="26" fill="#E0887A" opacity="0.02"/><circle cx="420" cy="280" r="40" fill="#9080BA" opacity="0.04"/><circle cx="354" cy="326" r="14" fill="#3d1525" opacity="0.06"/><circle cx="288" cy="72" r="28" fill="#E0887A" opacity="0.08"/><circle cx="222" cy="118" r="42" fill="#9080BA" opacity="0.02"/><circle cx="156" cy="164" r="16" fill="#3d1525" opacity="0.04"/><circle cx="90" cy="210" r="30" fill="#E0887A" opacity="0.06"/><circle cx="724" cy="256" r="44" fill="#9080BA" opacity="0.08"/><circle cx="658" cy="302" r="18" fill="#3d1525" opacity="0.02"/></g><ellipse cx="400" cy="380" rx="350" ry="60" fill="#E0887A" opacity=".03"/></svg>