<svg xmlns="http://www.w3.org/2000/svg" width="800" height="400" viewBox="0 0 800 400"><defs><radialGradient id="g1" cx="30%" cy="40%" r="65%"><stop offset="0%" stop-color="#200830" stop-opacity=".9"/><stop offset="100%" stop-color="#0a0410"/></radialGradient><radialGradient id="g2" cx="75%" cy="65%" r="50%"><stop offset="0%" stop-color="#D946EF" stop-opacity=".15"/><stop offset="100%" stop-color="#0a0410" stop-opacity="0"/></radialGradient><radialGradient id="g3" cx="50%" cy="20%" r="45%"><stop offset="0%" stop-color="#FB923C" stop-opacity=".08"/><stop offset="100%" stop-color="transparent"/></radialGradient><filter id="noise"><feTurbulence type="fractalNoise" baseFrequency=".65" numOctaves="4" stitchTiles="stitch"/><feColorMatrix type="saturate" values="0"/><feComponentTransfer><feFuncA type="linear" slope=".08"/></feComponentTransfer></filter><filter id="blur"><feGaussianBlur stdDeviation="30"/></filter></defs><rect fill="#0a0410" width="800" height="400"/><rect fill="url(#g1)" width="800" height="400"/><rect fill="url(#g2)" width="800" height="400"/><rect fill="url(#g3)" width="800" height="400"/><rect filter="url(#noise)" width="800" height="400" opacity=".4"/><g filter="url(#blur)"><circle cx="172" cy="68" r="32" fill="#D946EF" opacity="0.04"/><circle cx="294" cy="86" r="14" fill="#FB923C" opacity="0.06"/><circle cx="416" cy="104" r="36" fill="#200830" opacity="0.08"/><circle cx="538" cy="122" r="18" fill="#D946EF" opacity="0.02"/><circle cx="660" cy="140" r="40" fill="#FB923C" opacity="0.04"/><circle cx="82" cy="158" r="22" fill="#200830" opacity="0.06"/><circle cx="204" cy="176" r="44" fill="#D946EF" opacity="0.08"/><circle cx="326" cy="194" r="26" fill="#FB923C" opacity="0.02"/><circle cx="448" cy="212" r="48" fill="#200830" opacity="0.04"/><circle cx="570" cy="230" r="30" fill="#D946EF" opacity="0.06"/><circle cx="692" cy="248" r="12" fill="#FB923C" opacity="0.08"/><circle cx="114" cy="266" r="34" fill="#200830" opacity="0.02"/></g><ellipse cx="400" cy="380" rx="350" ry="60" fill="#D946EF" opacity=".03"/></svg>