<svg xmlns="http://www.w3.org/2000/svg" width="800" height="400" viewBox="0 0 800 400"><defs><radialGradient id="g1" cx="30%" cy="40%" r="65%"><stop offset="0%" stop-color="#100828" stop-opacity=".9"/><stop offset="100%" stop-color="#060410"/></radialGradient><radialGradient id="g2" cx="75%" cy="65%" r="50%"><stop offset="0%" stop-color="#A78BFA" stop-opacity=".15"/><stop offset="100%" stop-color="#060410" stop-opacity="0"/></radialGradient><radialGradient id="g3" cx="50%" cy="20%" r="45%"><stop offset="0%" stop-color="#EC4899" stop-opacity=".08"/><stop offset="100%" stop-color="transparent"/></radialGradient><filter id="noise"><feTurbulence type="fractalNoise" baseFrequency=".65" numOctaves="4" stitchTiles="stitch"/><feColorMatrix type="saturate" values="0"/><feComponentTransfer><feFuncA type="linear" slope=".08"/></feComponentTransfer></filter><filter id="blur"><feGaussianBlur stdDeviation="30"/></filter></defs><rect fill="#060410" width="800" height="400"/><rect fill="url(#g1)" width="800" height="400"/><rect fill="url(#g2)" width="800" height="400"/><rect fill="url(#g3)" width="800" height="400"/><rect filter="url(#noise)" width="800" height="400" opacity=".4"/><g filter="url(#blur)"><circle cx="603" cy="107" r="43" fill="#A78BFA" opacity="0.05"/><circle cx="456" cy="164" r="36" fill="#EC4899" opacity="0.08"/><circle cx="309" cy="221" r="29" fill="#100828" opacity="0.03"/><circle cx="162" cy="278" r="22" fill="#A78BFA" opacity="0.06"/><circle cx="715" cy="335" r="15" fill="#EC4899" opacity="0.09"/><circle cx="568" cy="92" r="48" fill="#100828" opacity="0.04"/><circle cx="421" cy="149" r="41" fill="#A78BFA" opacity="0.07"/><circle cx="274" cy="206" r="34" fill="#EC4899" opacity="0.02"/><circle cx="127" cy="263" r="27" fill="#100828" opacity="0.05"/><circle cx="680" cy="320" r="20" fill="#A78BFA" opacity="0.08"/><circle cx="533" cy="77" r="13" fill="#EC4899" opacity="0.03"/><circle cx="386" cy="134" r="46" fill="#100828" opacity="0.06"/></g><ellipse cx="400" cy="380" rx="350" ry="60" fill="#A78BFA" opacity=".03"/></svg>