<svg xmlns="http://www.w3.org/2000/svg" width="800" height="400" viewBox="0 0 800 400"><defs><radialGradient id="g1" cx="30%" cy="40%" r="65%"><stop offset="0%" stop-color="#081820" stop-opacity=".9"/><stop offset="100%" stop-color="#04080a"/></radialGradient><radialGradient id="g2" cx="75%" cy="65%" r="50%"><stop offset="0%" stop-color="#38BDF8" stop-opacity=".15"/><stop offset="100%" stop-color="#04080a" stop-opacity="0"/></radialGradient><radialGradient id="g3" cx="50%" cy="20%" r="45%"><stop offset="0%" stop-color="#6BA888" stop-opacity=".08"/><stop offset="100%" stop-color="transparent"/></radialGradient><filter id="noise"><feTurbulence type="fractalNoise" baseFrequency=".65" numOctaves="4" stitchTiles="stitch"/><feColorMatrix type="saturate" values="0"/><feComponentTransfer><feFuncA type="linear" slope=".08"/></feComponentTransfer></filter><filter id="blur"><feGaussianBlur stdDeviation="30"/></filter></defs><rect fill="#04080a" width="800" height="400"/><rect fill="url(#g1)" width="800" height="400"/><rect fill="url(#g2)" width="800" height="400"/><rect fill="url(#g3)" width="800" height="400"/><rect filter="url(#noise)" width="800" height="400" opacity=".4"/><g filter="url(#blur)"><circle cx="114" cy="266" r="34" fill="#38BDF8" opacity="0.02"/><circle cx="178" cy="182" r="18" fill="#6BA888" opacity="0.02"/><circle cx="242" cy="98" r="42" fill="#081820" opacity="0.02"/><circle cx="306" cy="314" r="26" fill="#38BDF8" opacity="0.02"/><circle cx="370" cy="230" r="10" fill="#6BA888" opacity="0.02"/><circle cx="434" cy="146" r="34" fill="#081820" opacity="0.02"/><circle cx="498" cy="62" r="18" fill="#38BDF8" opacity="0.02"/><circle cx="562" cy="278" r="42" fill="#6BA888" opacity="0.02"/><circle cx="626" cy="194" r="26" fill="#081820" opacity="0.02"/><circle cx="690" cy="110" r="10" fill="#38BDF8" opacity="0.02"/><circle cx="54" cy="326" r="34" fill="#6BA888" opacity="0.02"/><circle cx="118" cy="242" r="18" fill="#081820" opacity="0.02"/></g><ellipse cx="400" cy="380" rx="350" ry="60" fill="#38BDF8" opacity=".03"/></svg>