<svg xmlns="http://www.w3.org/2000/svg" width="800" height="400" viewBox="0 0 800 400"><defs><radialGradient id="g1" cx="30%" cy="40%" r="65%"><stop offset="0%" stop-color="#200808" stop-opacity=".9"/><stop offset="100%" stop-color="#0a0404"/></radialGradient><radialGradient id="g2" cx="75%" cy="65%" r="50%"><stop offset="0%" stop-color="#EF4444" stop-opacity=".15"/><stop offset="100%" stop-color="#0a0404" stop-opacity="0"/></radialGradient><radialGradient id="g3" cx="50%" cy="20%" r="45%"><stop offset="0%" stop-color="#1a1a1a" stop-opacity=".08"/><stop offset="100%" stop-color="transparent"/></radialGradient><filter id="noise"><feTurbulence type="fractalNoise" baseFrequency=".65" numOctaves="4" stitchTiles="stitch"/><feColorMatrix type="saturate" values="0"/><feComponentTransfer><feFuncA type="linear" slope=".08"/></feComponentTransfer></filter><filter id="blur"><feGaussianBlur stdDeviation="30"/></filter></defs><rect fill="#0a0404" width="800" height="400"/><rect fill="url(#g1)" width="800" height="400"/><rect fill="url(#g2)" width="800" height="400"/><rect fill="url(#g3)" width="800" height="400"/><rect filter="url(#noise)" width="800" height="400" opacity=".4"/><g filter="url(#blur)"><circle cx="416" cy="304" r="16" fill="#EF4444" opacity="0.04"/><circle cx="82" cy="258" r="22" fill="#1a1a1a" opacity="0.06"/><circle cx="448" cy="212" r="28" fill="#200808" opacity="0.08"/><circle cx="114" cy="166" r="34" fill="#EF4444" opacity="0.02"/><circle cx="480" cy="120" r="40" fill="#1a1a1a" opacity="0.04"/><circle cx="146" cy="74" r="46" fill="#200808" opacity="0.06"/><circle cx="512" cy="328" r="12" fill="#EF4444" opacity="0.08"/><circle cx="178" cy="282" r="18" fill="#1a1a1a" opacity="0.02"/><circle cx="544" cy="236" r="24" fill="#200808" opacity="0.04"/><circle cx="210" cy="190" r="30" fill="#EF4444" opacity="0.06"/><circle cx="576" cy="144" r="36" fill="#1a1a1a" opacity="0.08"/><circle cx="242" cy="98" r="42" fill="#200808" opacity="0.02"/></g><ellipse cx="400" cy="380" rx="350" ry="60" fill="#EF4444" opacity=".03"/></svg>