<svg xmlns="http://www.w3.org/2000/svg" width="800" height="400" viewBox="0 0 800 400"><defs><radialGradient id="g1" cx="30%" cy="40%" r="65%"><stop offset="0%" stop-color="#1a1208" stop-opacity=".9"/><stop offset="100%" stop-color="#080604"/></radialGradient><radialGradient id="g2" cx="75%" cy="65%" r="50%"><stop offset="0%" stop-color="#92400E" stop-opacity=".15"/><stop offset="100%" stop-color="#080604" stop-opacity="0"/></radialGradient><radialGradient id="g3" cx="50%" cy="20%" r="45%"><stop offset="0%" stop-color="#78350F" stop-opacity=".08"/><stop offset="100%" stop-color="transparent"/></radialGradient><filter id="noise"><feTurbulence type="fractalNoise" baseFrequency=".65" numOctaves="4" stitchTiles="stitch"/><feColorMatrix type="saturate" values="0"/><feComponentTransfer><feFuncA type="linear" slope=".08"/></feComponentTransfer></filter><filter id="blur"><feGaussianBlur stdDeviation="30"/></filter></defs><rect fill="#080604" width="800" height="400"/><rect fill="url(#g1)" width="800" height="400"/><rect fill="url(#g2)" width="800" height="400"/><rect fill="url(#g3)" width="800" height="400"/><rect filter="url(#noise)" width="800" height="400" opacity=".4"/><g filter="url(#blur)"><circle cx="243" cy="167" r="43" fill="#92400E" opacity="0.05"/><circle cx="436" cy="284" r="36" fill="#78350F" opacity="0.08"/><circle cx="629" cy="101" r="29" fill="#1a1208" opacity="0.03"/><circle cx="122" cy="218" r="22" fill="#92400E" opacity="0.06"/><circle cx="315" cy="335" r="15" fill="#78350F" opacity="0.09"/><circle cx="508" cy="152" r="48" fill="#1a1208" opacity="0.04"/><circle cx="701" cy="269" r="41" fill="#92400E" opacity="0.07"/><circle cx="194" cy="86" r="34" fill="#78350F" opacity="0.02"/><circle cx="387" cy="203" r="27" fill="#1a1208" opacity="0.05"/><circle cx="580" cy="320" r="20" fill="#92400E" opacity="0.08"/><circle cx="73" cy="137" r="13" fill="#78350F" opacity="0.03"/><circle cx="266" cy="254" r="46" fill="#1a1208" opacity="0.06"/></g><ellipse cx="400" cy="380" rx="350" ry="60" fill="#92400E" opacity=".03"/></svg>