<svg xmlns="http://www.w3.org/2000/svg" width="800" height="400" viewBox="0 0 800 400"><defs><radialGradient id="g1" cx="30%" cy="40%" r="65%"><stop offset="0%" stop-color="#0a1e10" stop-opacity=".9"/><stop offset="100%" stop-color="#040a06"/></radialGradient><radialGradient id="g2" cx="75%" cy="65%" r="50%"><stop offset="0%" stop-color="#22C55E" stop-opacity=".15"/><stop offset="100%" stop-color="#040a06" stop-opacity="0"/></radialGradient><radialGradient id="g3" cx="50%" cy="20%" r="45%"><stop offset="0%" stop-color="#84CC16" stop-opacity=".08"/><stop offset="100%" stop-color="transparent"/></radialGradient><filter id="noise"><feTurbulence type="fractalNoise" baseFrequency=".65" numOctaves="4" stitchTiles="stitch"/><feColorMatrix type="saturate" values="0"/><feComponentTransfer><feFuncA type="linear" slope=".08"/></feComponentTransfer></filter><filter id="blur"><feGaussianBlur stdDeviation="30"/></filter></defs><rect fill="#040a06" width="800" height="400"/><rect fill="url(#g1)" width="800" height="400"/><rect fill="url(#g2)" width="800" height="400"/><rect fill="url(#g3)" width="800" height="400"/><rect filter="url(#noise)" width="800" height="400" opacity=".4"/><g filter="url(#blur)"><circle cx="265" cy="285" r="45" fill="#22C55E" opacity="0.03"/><circle cx="480" cy="220" r="40" fill="#84CC16" opacity="0.04"/><circle cx="695" cy="155" r="35" fill="#0a1e10" opacity="0.05"/><circle cx="210" cy="90" r="30" fill="#22C55E" opacity="0.06"/><circle cx="425" cy="325" r="25" fill="#84CC16" opacity="0.07"/><circle cx="640" cy="260" r="20" fill="#0a1e10" opacity="0.08"/><circle cx="155" cy="195" r="15" fill="#22C55E" opacity="0.09"/><circle cx="370" cy="130" r="10" fill="#84CC16" opacity="0.02"/><circle cx="585" cy="65" r="45" fill="#0a1e10" opacity="0.03"/><circle cx="100" cy="300" r="40" fill="#22C55E" opacity="0.04"/><circle cx="315" cy="235" r="35" fill="#84CC16" opacity="0.05"/><circle cx="530" cy="170" r="30" fill="#0a1e10" opacity="0.06"/></g><ellipse cx="400" cy="380" rx="350" ry="60" fill="#22C55E" opacity=".03"/></svg>