<svg xmlns="http://www.w3.org/2000/svg" width="800" height="400" viewBox="0 0 800 400"><defs><radialGradient id="g1" cx="30%" cy="40%" r="65%"><stop offset="0%" stop-color="#2a1020" stop-opacity=".9"/><stop offset="100%" stop-color="#0a0508"/></radialGradient><radialGradient id="g2" cx="75%" cy="65%" r="50%"><stop offset="0%" stop-color="#F9A8A8" stop-opacity=".15"/><stop offset="100%" stop-color="#0a0508" stop-opacity="0"/></radialGradient><radialGradient id="g3" cx="50%" cy="20%" r="45%"><stop offset="0%" stop-color="#FB923C" stop-opacity=".08"/><stop offset="100%" stop-color="transparent"/></radialGradient><filter id="noise"><feTurbulence type="fractalNoise" baseFrequency=".65" numOctaves="4" stitchTiles="stitch"/><feColorMatrix type="saturate" values="0"/><feComponentTransfer><feFuncA type="linear" slope=".08"/></feComponentTransfer></filter><filter id="blur"><feGaussianBlur stdDeviation="30"/></filter></defs><rect fill="#0a0508" width="800" height="400"/><rect fill="url(#g1)" width="800" height="400"/><rect fill="url(#g2)" width="800" height="400"/><rect fill="url(#g3)" width="800" height="400"/><rect filter="url(#noise)" width="800" height="400" opacity=".4"/><g filter="url(#blur)"><circle cx="330" cy="70" r="10" fill="#F9A8A8" opacity="0.02"/><circle cx="610" cy="90" r="10" fill="#FB923C" opacity="0.02"/><circle cx="190" cy="110" r="10" fill="#2a1020" opacity="0.02"/><circle cx="470" cy="130" r="10" fill="#F9A8A8" opacity="0.02"/><circle cx="50" cy="150" r="10" fill="#FB923C" opacity="0.02"/><circle cx="330" cy="170" r="10" fill="#2a1020" opacity="0.02"/><circle cx="610" cy="190" r="10" fill="#F9A8A8" opacity="0.02"/><circle cx="190" cy="210" r="10" fill="#FB923C" opacity="0.02"/><circle cx="470" cy="230" r="10" fill="#2a1020" opacity="0.02"/><circle cx="50" cy="250" r="10" fill="#F9A8A8" opacity="0.02"/><circle cx="330" cy="270" r="10" fill="#FB923C" opacity="0.02"/><circle cx="610" cy="290" r="10" fill="#2a1020" opacity="0.02"/></g><ellipse cx="400" cy="380" rx="350" ry="60" fill="#F9A8A8" opacity=".03"/></svg>