<svg xmlns="http://www.w3.org/2000/svg" width="800" height="400" viewBox="0 0 800 400"><defs><radialGradient id="g1" cx="30%" cy="40%" r="65%"><stop offset="0%" stop-color="#1a1030" stop-opacity=".9"/><stop offset="100%" stop-color="#05030a"/></radialGradient><radialGradient id="g2" cx="75%" cy="65%" r="50%"><stop offset="0%" stop-color="#9080BA" stop-opacity=".15"/><stop offset="100%" stop-color="#05030a" stop-opacity="0"/></radialGradient><radialGradient id="g3" cx="50%" cy="20%" r="45%"><stop offset="0%" stop-color="#A78BFA" stop-opacity=".08"/><stop offset="100%" stop-color="transparent"/></radialGradient><filter id="noise"><feTurbulence type="fractalNoise" baseFrequency=".65" numOctaves="4" stitchTiles="stitch"/><feColorMatrix type="saturate" values="0"/><feComponentTransfer><feFuncA type="linear" slope=".08"/></feComponentTransfer></filter><filter id="blur"><feGaussianBlur stdDeviation="30"/></filter></defs><rect fill="#05030a" width="800" height="400"/><rect fill="url(#g1)" width="800" height="400"/><rect fill="url(#g2)" width="800" height="400"/><rect fill="url(#g3)" width="800" height="400"/><rect filter="url(#noise)" width="800" height="400" opacity=".4"/><g filter="url(#blur)"><circle cx="631" cy="239" r="11" fill="#9080BA" opacity="0.05"/><circle cx="512" cy="128" r="12" fill="#A78BFA" opacity="0.08"/><circle cx="393" cy="317" r="13" fill="#1a1030" opacity="0.03"/><circle cx="274" cy="206" r="14" fill="#9080BA" opacity="0.06"/><circle cx="155" cy="95" r="15" fill="#A78BFA" opacity="0.09"/><circle cx="736" cy="284" r="16" fill="#1a1030" opacity="0.04"/><circle cx="617" cy="173" r="17" fill="#9080BA" opacity="0.07"/><circle cx="498" cy="62" r="18" fill="#A78BFA" opacity="0.02"/><circle cx="379" cy="251" r="19" fill="#1a1030" opacity="0.05"/><circle cx="260" cy="140" r="20" fill="#9080BA" opacity="0.08"/><circle cx="141" cy="329" r="21" fill="#A78BFA" opacity="0.03"/><circle cx="722" cy="218" r="22" fill="#1a1030" opacity="0.06"/></g><ellipse cx="400" cy="380" rx="350" ry="60" fill="#9080BA" opacity=".03"/></svg>