<svg xmlns="http://www.w3.org/2000/svg" width="800" height="400" viewBox="0 0 800 400"><defs><radialGradient id="g1" cx="30%" cy="40%" r="65%"><stop offset="0%" stop-color="#101820" stop-opacity=".9"/><stop offset="100%" stop-color="#06080a"/></radialGradient><radialGradient id="g2" cx="75%" cy="65%" r="50%"><stop offset="0%" stop-color="#60A5FA" stop-opacity=".15"/><stop offset="100%" stop-color="#06080a" stop-opacity="0"/></radialGradient><radialGradient id="g3" cx="50%" cy="20%" r="45%"><stop offset="0%" stop-color="#F9A8A8" stop-opacity=".08"/><stop offset="100%" stop-color="transparent"/></radialGradient><filter id="noise"><feTurbulence type="fractalNoise" baseFrequency=".65" numOctaves="4" stitchTiles="stitch"/><feColorMatrix type="saturate" values="0"/><feComponentTransfer><feFuncA type="linear" slope=".08"/></feComponentTransfer></filter><filter id="blur"><feGaussianBlur stdDeviation="30"/></filter></defs><rect fill="#06080a" width="800" height="400"/><rect fill="url(#g1)" width="800" height="400"/><rect fill="url(#g2)" width="800" height="400"/><rect fill="url(#g3)" width="800" height="400"/><rect filter="url(#noise)" width="800" height="400" opacity=".4"/><g filter="url(#blur)"><circle cx="652" cy="288" r="32" fill="#60A5FA" opacity="0.04"/><circle cx="554" cy="226" r="14" fill="#F9A8A8" opacity="0.06"/><circle cx="456" cy="164" r="36" fill="#101820" opacity="0.08"/><circle cx="358" cy="102" r="18" fill="#60A5FA" opacity="0.02"/><circle cx="260" cy="340" r="40" fill="#F9A8A8" opacity="0.04"/><circle cx="162" cy="278" r="22" fill="#101820" opacity="0.06"/><circle cx="64" cy="216" r="44" fill="#60A5FA" opacity="0.08"/><circle cx="666" cy="154" r="26" fill="#F9A8A8" opacity="0.02"/><circle cx="568" cy="92" r="48" fill="#101820" opacity="0.04"/><circle cx="470" cy="330" r="30" fill="#60A5FA" opacity="0.06"/><circle cx="372" cy="268" r="12" fill="#F9A8A8" opacity="0.08"/><circle cx="274" cy="206" r="34" fill="#101820" opacity="0.02"/></g><ellipse cx="400" cy="380" rx="350" ry="60" fill="#60A5FA" opacity=".03"/></svg>