<svg xmlns="http://www.w3.org/2000/svg" width="800" height="400" viewBox="0 0 800 400"><defs><radialGradient id="g1" cx="30%" cy="40%" r="65%"><stop offset="0%" stop-color="#142008" stop-opacity=".9"/><stop offset="100%" stop-color="#080a04"/></radialGradient><radialGradient id="g2" cx="75%" cy="65%" r="50%"><stop offset="0%" stop-color="#FBBF24" stop-opacity=".15"/><stop offset="100%" stop-color="#080a04" stop-opacity="0"/></radialGradient><radialGradient id="g3" cx="50%" cy="20%" r="45%"><stop offset="0%" stop-color="#22C55E" stop-opacity=".08"/><stop offset="100%" stop-color="transparent"/></radialGradient><filter id="noise"><feTurbulence type="fractalNoise" baseFrequency=".65" numOctaves="4" stitchTiles="stitch"/><feColorMatrix type="saturate" values="0"/><feComponentTransfer><feFuncA type="linear" slope=".08"/></feComponentTransfer></filter><filter id="blur"><feGaussianBlur stdDeviation="30"/></filter></defs><rect fill="#080a04" width="800" height="400"/><rect fill="url(#g1)" width="800" height="400"/><rect fill="url(#g2)" width="800" height="400"/><rect fill="url(#g3)" width="800" height="400"/><rect filter="url(#noise)" width="800" height="400" opacity=".4"/><g filter="url(#blur)"><circle cx="437" cy="153" r="17" fill="#FBBF24" opacity="0.07"/><circle cx="124" cy="256" r="24" fill="#22C55E" opacity="0.04"/><circle cx="511" cy="59" r="31" fill="#142008" opacity="0.09"/><circle cx="198" cy="162" r="38" fill="#FBBF24" opacity="0.06"/><circle cx="585" cy="265" r="45" fill="#22C55E" opacity="0.03"/><circle cx="272" cy="68" r="12" fill="#142008" opacity="0.08"/><circle cx="659" cy="171" r="19" fill="#FBBF24" opacity="0.05"/><circle cx="346" cy="274" r="26" fill="#22C55E" opacity="0.02"/><circle cx="733" cy="77" r="33" fill="#142008" opacity="0.07"/><circle cx="420" cy="180" r="40" fill="#FBBF24" opacity="0.04"/><circle cx="107" cy="283" r="47" fill="#22C55E" opacity="0.09"/><circle cx="494" cy="86" r="14" fill="#142008" opacity="0.06"/></g><ellipse cx="400" cy="380" rx="350" ry="60" fill="#FBBF24" opacity=".03"/></svg>