<svg xmlns="http://www.w3.org/2000/svg" width="800" height="400" viewBox="0 0 800 400"><defs><radialGradient id="g1" cx="30%" cy="40%" r="65%"><stop offset="0%" stop-color="#081028" stop-opacity=".9"/><stop offset="100%" stop-color="#04060a"/></radialGradient><radialGradient id="g2" cx="75%" cy="65%" r="50%"><stop offset="0%" stop-color="#7DD3FC" stop-opacity=".15"/><stop offset="100%" stop-color="#04060a" stop-opacity="0"/></radialGradient><radialGradient id="g3" cx="50%" cy="20%" r="45%"><stop offset="0%" stop-color="#FB923C" stop-opacity=".08"/><stop offset="100%" stop-color="transparent"/></radialGradient><filter id="noise"><feTurbulence type="fractalNoise" baseFrequency=".65" numOctaves="4" stitchTiles="stitch"/><feColorMatrix type="saturate" values="0"/><feComponentTransfer><feFuncA type="linear" slope=".08"/></feComponentTransfer></filter><filter id="blur"><feGaussianBlur stdDeviation="30"/></filter></defs><rect fill="#04060a" width="800" height="400"/><rect fill="url(#g1)" width="800" height="400"/><rect fill="url(#g2)" width="800" height="400"/><rect fill="url(#g3)" width="800" height="400"/><rect filter="url(#noise)" width="800" height="400" opacity=".4"/><g filter="url(#blur)"><circle cx="71" cy="299" r="31" fill="#7DD3FC" opacity="0.09"/><circle cx="92" cy="248" r="12" fill="#FB923C" opacity="0.08"/><circle cx="113" cy="197" r="33" fill="#081028" opacity="0.07"/><circle cx="134" cy="146" r="14" fill="#7DD3FC" opacity="0.06"/><circle cx="155" cy="95" r="35" fill="#FB923C" opacity="0.05"/><circle cx="176" cy="344" r="16" fill="#081028" opacity="0.04"/><circle cx="197" cy="293" r="37" fill="#7DD3FC" opacity="0.03"/><circle cx="218" cy="242" r="18" fill="#FB923C" opacity="0.02"/><circle cx="239" cy="191" r="39" fill="#081028" opacity="0.09"/><circle cx="260" cy="140" r="20" fill="#7DD3FC" opacity="0.08"/><circle cx="281" cy="89" r="41" fill="#FB923C" opacity="0.07"/><circle cx="302" cy="338" r="22" fill="#081028" opacity="0.06"/></g><ellipse cx="400" cy="380" rx="350" ry="60" fill="#7DD3FC" opacity=".03"/></svg>