<svg xmlns="http://www.w3.org/2000/svg" width="800" height="400" viewBox="0 0 800 400"><defs><radialGradient id="g1" cx="30%" cy="40%" r="65%"><stop offset="0%" stop-color="#201408" stop-opacity=".9"/><stop offset="100%" stop-color="#0a0804"/></radialGradient><radialGradient id="g2" cx="75%" cy="65%" r="50%"><stop offset="0%" stop-color="#FB923C" stop-opacity=".15"/><stop offset="100%" stop-color="#0a0804" stop-opacity="0"/></radialGradient><radialGradient id="g3" cx="50%" cy="20%" r="45%"><stop offset="0%" stop-color="#FBBF24" stop-opacity=".08"/><stop offset="100%" stop-color="transparent"/></radialGradient><filter id="noise"><feTurbulence type="fractalNoise" baseFrequency=".65" numOctaves="4" stitchTiles="stitch"/><feColorMatrix type="saturate" values="0"/><feComponentTransfer><feFuncA type="linear" slope=".08"/></feComponentTransfer></filter><filter id="blur"><feGaussianBlur stdDeviation="30"/></filter></defs><rect fill="#0a0804" width="800" height="400"/><rect fill="url(#g1)" width="800" height="400"/><rect fill="url(#g2)" width="800" height="400"/><rect fill="url(#g3)" width="800" height="400"/><rect filter="url(#noise)" width="800" height="400" opacity=".4"/><g filter="url(#blur)"><circle cx="678" cy="82" r="18" fill="#FB923C" opacity="0.02"/><circle cx="606" cy="114" r="26" fill="#FBBF24" opacity="0.02"/><circle cx="534" cy="146" r="34" fill="#201408" opacity="0.02"/><circle cx="462" cy="178" r="42" fill="#FB923C" opacity="0.02"/><circle cx="390" cy="210" r="10" fill="#FBBF24" opacity="0.02"/><circle cx="318" cy="242" r="18" fill="#201408" opacity="0.02"/><circle cx="246" cy="274" r="26" fill="#FB923C" opacity="0.02"/><circle cx="174" cy="306" r="34" fill="#FBBF24" opacity="0.02"/><circle cx="102" cy="338" r="42" fill="#201408" opacity="0.02"/><circle cx="730" cy="70" r="10" fill="#FB923C" opacity="0.02"/><circle cx="658" cy="102" r="18" fill="#FBBF24" opacity="0.02"/><circle cx="586" cy="134" r="26" fill="#201408" opacity="0.02"/></g><ellipse cx="400" cy="380" rx="350" ry="60" fill="#FB923C" opacity=".03"/></svg>