<svg xmlns="http://www.w3.org/2000/svg" width="800" height="400" viewBox="0 0 800 400"><defs><radialGradient id="g1" cx="30%" cy="40%" r="65%"><stop offset="0%" stop-color="#0a1810" stop-opacity=".9"/><stop offset="100%" stop-color="#040806"/></radialGradient><radialGradient id="g2" cx="75%" cy="65%" r="50%"><stop offset="0%" stop-color="#6BA888" stop-opacity=".15"/><stop offset="100%" stop-color="#040806" stop-opacity="0"/></radialGradient><radialGradient id="g3" cx="50%" cy="20%" r="45%"><stop offset="0%" stop-color="#A78BFA" stop-opacity=".08"/><stop offset="100%" stop-color="transparent"/></radialGradient><filter id="noise"><feTurbulence type="fractalNoise" baseFrequency=".65" numOctaves="4" stitchTiles="stitch"/><feColorMatrix type="saturate" values="0"/><feComponentTransfer><feFuncA type="linear" slope=".08"/></feComponentTransfer></filter><filter id="blur"><feGaussianBlur stdDeviation="30"/></filter></defs><rect fill="#040806" width="800" height="400"/><rect fill="url(#g1)" width="800" height="400"/><rect fill="url(#g2)" width="800" height="400"/><rect fill="url(#g3)" width="800" height="400"/><rect filter="url(#noise)" width="800" height="400" opacity=".4"/><g filter="url(#blur)"><circle cx="368" cy="192" r="48" fill="#6BA888" opacity="0.04"/><circle cx="686" cy="334" r="46" fill="#A78BFA" opacity="0.06"/><circle cx="304" cy="176" r="44" fill="#0a1810" opacity="0.08"/><circle cx="622" cy="318" r="42" fill="#6BA888" opacity="0.02"/><circle cx="240" cy="160" r="40" fill="#A78BFA" opacity="0.04"/><circle cx="558" cy="302" r="38" fill="#0a1810" opacity="0.06"/><circle cx="176" cy="144" r="36" fill="#6BA888" opacity="0.08"/><circle cx="494" cy="286" r="34" fill="#A78BFA" opacity="0.02"/><circle cx="112" cy="128" r="32" fill="#0a1810" opacity="0.04"/><circle cx="430" cy="270" r="30" fill="#6BA888" opacity="0.06"/><circle cx="748" cy="112" r="28" fill="#A78BFA" opacity="0.08"/><circle cx="366" cy="254" r="26" fill="#0a1810" opacity="0.02"/></g><ellipse cx="400" cy="380" rx="350" ry="60" fill="#6BA888" opacity=".03"/></svg>