<svg xmlns="http://www.w3.org/2000/svg" width="800" height="400" viewBox="0 0 800 400"><defs><radialGradient id="g1" cx="30%" cy="40%" r="65%"><stop offset="0%" stop-color="#140a20" stop-opacity=".9"/><stop offset="100%" stop-color="#06040a"/></radialGradient><radialGradient id="g2" cx="75%" cy="65%" r="50%"><stop offset="0%" stop-color="#A78BFA" stop-opacity=".15"/><stop offset="100%" stop-color="#06040a" stop-opacity="0"/></radialGradient><radialGradient id="g3" cx="50%" cy="20%" r="45%"><stop offset="0%" stop-color="#EC4899" stop-opacity=".08"/><stop offset="100%" stop-color="transparent"/></radialGradient><filter id="noise"><feTurbulence type="fractalNoise" baseFrequency=".65" numOctaves="4" stitchTiles="stitch"/><feColorMatrix type="saturate" values="0"/><feComponentTransfer><feFuncA type="linear" slope=".08"/></feComponentTransfer></filter><filter id="blur"><feGaussianBlur stdDeviation="30"/></filter></defs><rect fill="#06040a" width="800" height="400"/><rect fill="url(#g1)" width="800" height="400"/><rect fill="url(#g2)" width="800" height="400"/><rect fill="url(#g3)" width="800" height="400"/><rect filter="url(#noise)" width="800" height="400" opacity=".4"/><g filter="url(#blur)"><circle cx="109" cy="321" r="49" fill="#A78BFA" opacity="0.07"/><circle cx="168" cy="292" r="48" fill="#EC4899" opacity="0.04"/><circle cx="227" cy="263" r="47" fill="#140a20" opacity="0.09"/><circle cx="286" cy="234" r="46" fill="#A78BFA" opacity="0.06"/><circle cx="345" cy="205" r="45" fill="#EC4899" opacity="0.03"/><circle cx="404" cy="176" r="44" fill="#140a20" opacity="0.08"/><circle cx="463" cy="147" r="43" fill="#A78BFA" opacity="0.05"/><circle cx="522" cy="118" r="42" fill="#EC4899" opacity="0.02"/><circle cx="581" cy="89" r="41" fill="#140a20" opacity="0.07"/><circle cx="640" cy="60" r="40" fill="#A78BFA" opacity="0.04"/><circle cx="699" cy="331" r="39" fill="#EC4899" opacity="0.09"/><circle cx="58" cy="302" r="38" fill="#140a20" opacity="0.06"/></g><ellipse cx="400" cy="380" rx="350" ry="60" fill="#A78BFA" opacity=".03"/></svg>