<svg xmlns="http://www.w3.org/2000/svg" width="800" height="400" viewBox="0 0 800 400"><defs><radialGradient id="g1" cx="30%" cy="40%" r="65%"><stop offset="0%" stop-color="#102820" stop-opacity=".9"/><stop offset="100%" stop-color="#050a08"/></radialGradient><radialGradient id="g2" cx="75%" cy="65%" r="50%"><stop offset="0%" stop-color="#6BA888" stop-opacity=".15"/><stop offset="100%" stop-color="#050a08" stop-opacity="0"/></radialGradient><radialGradient id="g3" cx="50%" cy="20%" r="45%"><stop offset="0%" stop-color="#34D399" stop-opacity=".08"/><stop offset="100%" stop-color="transparent"/></radialGradient><filter id="noise"><feTurbulence type="fractalNoise" baseFrequency=".65" numOctaves="4" stitchTiles="stitch"/><feColorMatrix type="saturate" values="0"/><feComponentTransfer><feFuncA type="linear" slope=".08"/></feComponentTransfer></filter><filter id="blur"><feGaussianBlur stdDeviation="30"/></filter></defs><rect fill="#050a08" width="800" height="400"/><rect fill="url(#g1)" width="800" height="400"/><rect fill="url(#g2)" width="800" height="400"/><rect fill="url(#g3)" width="800" height="400"/><rect filter="url(#noise)" width="800" height="400" opacity=".4"/><g filter="url(#blur)"><circle cx="643" cy="67" r="23" fill="#6BA888" opacity="0.09"/><circle cx="536" cy="84" r="36" fill="#34D399" opacity="0.08"/><circle cx="429" cy="101" r="49" fill="#102820" opacity="0.07"/><circle cx="322" cy="118" r="22" fill="#6BA888" opacity="0.06"/><circle cx="215" cy="135" r="35" fill="#34D399" opacity="0.05"/><circle cx="108" cy="152" r="48" fill="#102820" opacity="0.04"/><circle cx="701" cy="169" r="21" fill="#6BA888" opacity="0.03"/><circle cx="594" cy="186" r="34" fill="#34D399" opacity="0.02"/><circle cx="487" cy="203" r="47" fill="#102820" opacity="0.09"/><circle cx="380" cy="220" r="20" fill="#6BA888" opacity="0.08"/><circle cx="273" cy="237" r="33" fill="#34D399" opacity="0.07"/><circle cx="166" cy="254" r="46" fill="#102820" opacity="0.06"/></g><ellipse cx="400" cy="380" rx="350" ry="60" fill="#6BA888" opacity=".03"/></svg>