<svg xmlns="http://www.w3.org/2000/svg" width="800" height="400" viewBox="0 0 800 400"><defs><radialGradient id="g1" cx="30%" cy="40%" r="65%"><stop offset="0%" stop-color="#101018" stop-opacity=".9"/><stop offset="100%" stop-color="#060608"/></radialGradient><radialGradient id="g2" cx="75%" cy="65%" r="50%"><stop offset="0%" stop-color="#9CA3AF" stop-opacity=".15"/><stop offset="100%" stop-color="#060608" stop-opacity="0"/></radialGradient><radialGradient id="g3" cx="50%" cy="20%" r="45%"><stop offset="0%" stop-color="#E0887A" stop-opacity=".08"/><stop offset="100%" stop-color="transparent"/></radialGradient><filter id="noise"><feTurbulence type="fractalNoise" baseFrequency=".65" numOctaves="4" stitchTiles="stitch"/><feColorMatrix type="saturate" values="0"/><feComponentTransfer><feFuncA type="linear" slope=".08"/></feComponentTransfer></filter><filter id="blur"><feGaussianBlur stdDeviation="30"/></filter></defs><rect fill="#060608" width="800" height="400"/><rect fill="url(#g1)" width="800" height="400"/><rect fill="url(#g2)" width="800" height="400"/><rect fill="url(#g3)" width="800" height="400"/><rect filter="url(#noise)" width="800" height="400" opacity=".4"/><g filter="url(#blur)"><circle cx="476" cy="144" r="36" fill="#9CA3AF" opacity="0.08"/><circle cx="202" cy="238" r="22" fill="#E0887A" opacity="0.06"/><circle cx="628" cy="332" r="48" fill="#101018" opacity="0.04"/><circle cx="354" cy="126" r="34" fill="#9CA3AF" opacity="0.02"/><circle cx="80" cy="220" r="20" fill="#E0887A" opacity="0.08"/><circle cx="506" cy="314" r="46" fill="#101018" opacity="0.06"/><circle cx="232" cy="108" r="32" fill="#9CA3AF" opacity="0.04"/><circle cx="658" cy="202" r="18" fill="#E0887A" opacity="0.02"/><circle cx="384" cy="296" r="44" fill="#101018" opacity="0.08"/><circle cx="110" cy="90" r="30" fill="#9CA3AF" opacity="0.06"/><circle cx="536" cy="184" r="16" fill="#E0887A" opacity="0.04"/><circle cx="262" cy="278" r="42" fill="#101018" opacity="0.02"/></g><ellipse cx="400" cy="380" rx="350" ry="60" fill="#9CA3AF" opacity=".03"/></svg>